<svg height="62px" version="1.1" viewBox="0 0 203 62" width="203px" xmlns="http://www.w3.org/2000/svg" xmlns:xlink="http://www.w3.org/1999/xlink"><title></title><g fill="none" fill-rule="evenodd" id="Symbols" stroke="none" stroke-width="1"><g fill="#FFFFFF" id="Logo/Main/White"><path d="M134.822414,61.0077429 C134.207639,61.0255229 133.343944,61.081598 132.748317,61.081598 C130.043715,61.081598 129.813944,60.9325201 129.698374,60.0394204 C129.659395,59.7214331 129.659395,56.945712 129.659395,54.2807735 C129.659395,52.026825 129.679227,49.8275839 129.698374,49.2141762 L131.387468,49.1581011 L131.387468,48.5611056 C130.868431,48.5611056 130.120306,48.6000847 128.470191,48.6000847 C126.800929,48.6000847 126.0699,48.5611056 125.533767,48.5611056 L125.533767,49.1581011 L127.107291,49.2141762 C127.165418,50.4430432 127.165418,51.1330414 127.165418,57.4312409 C127.165418,59.8151197 127.14627,60.0572003 127.107291,61.0446705 L125.533767,61.081598 L125.533767,61.6772258 C126.511663,61.6402983 128.680131,61.6402983 130.887578,61.6402983 C133.095025,61.6402983 135.320252,61.6594459 136.376107,61.6772258 L136.740596,58.0268687 L135.857754,58.0268687 L134.822414,61.0077429 Z M150.480381,42.9426466 C143.448417,42.9426466 137.059951,36.5487089 137.059951,26.5946815 C137.059951,13.4683037 145.429512,9.66886862 150.431144,9.66886862 C156.771058,9.66886862 163.160209,15.342719 163.160209,25.9224633 C163.160209,34.8179008 158.406129,42.9426466 150.480381,42.9426466 Z M150.381908,8.61027873 C138.643049,8.61027873 132.502817,17.3627929 132.502817,26.6911035 C132.502817,35.25009 138.545259,44.0012365 150.035199,44.0012365 C161.276904,44.0012365 167.716659,35.1051151 167.716659,25.7296194 C167.716659,16.400625 161.723454,8.61027873 150.381908,8.61027873 Z M112.295239,42.9426466 C105.263959,42.9426466 98.8748079,36.5487089 98.8748079,26.5946815 C98.8748079,13.4683037 107.243002,9.66886862 112.246686,9.66886862 C118.5866,9.66886862 124.975067,15.342719 124.975067,25.9224633 C124.975067,34.8179008 120.220986,42.9426466 112.295239,42.9426466 Z M112.197449,8.61027873 C100.457906,8.61027873 94.318358,17.3627929 94.318358,26.6911035 C94.318358,35.25009 100.360116,44.0012365 111.85074,44.0012365 C123.091761,44.0012365 129.5322,35.1051151 129.5322,25.7296194 C129.5322,16.400625 123.538995,8.61027873 112.197449,8.61027873 Z M173.430856,56.8335616 L173.450688,57.4114095 L175.274499,57.4873161 C175.274499,57.8948869 175.31211,59.2735156 175.254667,60.0927602 C174.52569,60.9516678 173.37273,61.3058987 172.222505,61.3058987 C168.596082,61.3058987 167.214034,57.7088814 167.214034,54.9523079 C167.214034,51.4674409 169.266933,48.8606291 172.183526,48.8606291 C174.948305,48.8606291 176.251027,51.1699689 176.750917,52.8843648 L177.385524,52.8843648 C177.365692,52.4357634 177.289102,50.5743412 177.289102,50.2016464 C177.289102,49.7352651 177.289102,49.4200132 177.307566,49.1581011 L176.673643,49.1581011 C176.617567,49.3078628 176.521145,49.5294281 176.309154,49.5294281 C176.02194,49.5294281 174.237108,48.2636336 171.626877,48.2636336 C167.425342,48.2636336 164.642098,51.2260441 164.642098,55.1376295 C164.642098,59.6092828 168.135171,61.9760655 171.47438,61.9760655 C173.75705,61.9760655 175.925518,61.1568208 177.807455,59.94505 L177.807455,57.8771069 C177.807455,57.5235598 177.884046,57.4312409 178.861942,57.3751657 L178.861942,56.7774864 C177.826603,56.8150978 176.693474,56.8527092 175.080971,56.8527092 C174.449099,56.8527092 173.910914,56.8335616 173.430856,56.8335616 Z M197.016622,61.1185256 L193.081786,61.1185256 C191.353713,61.1185256 191.240195,61.0077429 191.182068,60.281501 C191.143773,59.6838217 191.143773,55.957558 191.143773,55.008383 C191.738033,55.008383 193.907185,55.008383 194.138324,55.1766086 C194.405707,55.3810778 194.386559,55.734625 194.521277,57.2992591 L195.404119,57.2992591 C195.385655,56.1257835 195.327528,55.2880751 195.327528,54.3566801 C195.327528,53.6099229 195.365823,52.8843648 195.385655,52.1943666 L194.540424,52.1943666 C194.482298,53.6659981 194.329117,54.2246983 194.041902,54.3737762 C193.829227,54.4859265 192.505306,54.5249056 191.143773,54.5249056 L191.143773,49.0835621 L194.251842,49.0835621 C194.790027,49.0835621 196.113948,49.0835621 196.613154,49.3078628 C197.074065,49.5492596 197.110309,49.9780295 197.207414,51.3566582 L198.129235,51.3566582 L198.129235,48.5611056 C197.284005,48.5611056 192.198944,48.6171808 191.277123,48.6171808 C189.166097,48.6171808 188.111611,48.5802532 187.018145,48.5611056 L187.018145,49.1581011 L188.590985,49.2141762 C188.649112,50.4430432 188.649112,51.1330414 188.649112,57.4312409 C188.649112,59.8151197 188.629964,60.0572003 188.590985,61.0446705 L187.018145,61.081598 L187.018145,61.6772258 C187.918767,61.6772258 191.718202,61.6402983 192.910141,61.6402983 L198.512188,61.6402983 L198.780255,58.2504855 L197.935708,58.2504855 L197.016622,61.1185256 Z M183.812286,42.1740064 C180.939459,42.1740064 176.976585,41.8847405 176.680481,41.3089442 C176.383009,40.828886 176.383009,34.240053 176.383009,33.5671509 C176.383009,27.8454315 176.383009,13.322645 176.432246,11.7846807 C176.480799,10.9196186 176.531403,10.7267747 176.778954,10.5831675 C177.274057,10.3903236 178.711496,10.2467165 179.94857,10.2467165 C190.299226,10.2467165 198.372,15.3899042 198.372,26.4982596 C198.372,35.0579299 193.321131,42.1740064 183.812286,42.1740064 Z M202.92845,26.0660704 C202.92845,15.054137 195.004754,9.09238847 184.704702,9.09238847 C181.880428,9.09238847 170.736512,9.47602473 168.211078,9.47602473 L168.211078,10.7267747 L171.875796,10.8231966 C172.02419,13.9955471 172.02419,15.8227772 172.02419,32.3656377 C172.02419,37.5580621 171.974953,39.1924483 171.875796,41.7903701 L168.211078,41.9811625 L168.211078,43.2319124 C170.091648,43.1847272 171.628928,43.1361743 173.906128,43.1361743 C175.143884,43.1361743 181.236931,43.2319124 182.623082,43.2319124 C193.914707,43.2319124 202.92845,38.039488 202.92845,26.0660704 Z M154.49044,61.1185256 L150.557656,61.1185256 C148.830267,61.1185256 148.714697,61.0077429 148.65657,60.281501 C148.618275,59.6838217 148.618275,55.957558 148.618275,55.008383 C149.213903,55.008383 151.382371,55.008383 151.612142,55.1766086 C151.882261,55.3810778 151.862429,55.734625 151.995779,57.2992591 L152.878621,57.2992591 C152.858789,56.1257835 152.801346,55.2880751 152.801346,54.3566801 C152.801346,53.6099229 152.840325,52.8843648 152.858789,52.1943666 L152.014926,52.1943666 C151.957483,53.6659981 151.804302,54.2246983 151.517088,54.3737762 C151.30578,54.4859265 149.980492,54.5249056 148.618275,54.5249056 L148.618275,49.0835621 L151.727712,49.0835621 C152.265213,49.0835621 153.589818,49.0835621 154.086972,49.3078628 C154.547883,49.5492596 154.586862,49.9780295 154.6826,51.3566582 L155.604421,51.3566582 L155.604421,48.5611056 C154.760558,48.5611056 149.674813,48.6171808 148.752992,48.6171808 C146.641967,48.6171808 145.58748,48.5802532 144.492647,48.5611056 L144.492647,49.1581011 L146.067538,49.2141762 C146.123614,50.4430432 146.123614,51.1330414 146.123614,57.4312409 C146.123614,59.8151197 146.103782,60.0572003 146.067538,61.0446705 L144.492647,61.081598 L144.492647,61.6772258 C145.394636,61.6772258 149.194755,61.6402983 150.383959,61.6402983 L155.988058,61.6402983 L156.256124,58.2504855 L155.411577,58.2504855 L154.49044,61.1185256 Z M70.0938824,61.3428263 C67.0630875,61.3428263 64.9896737,58.436491 64.9896737,54.9146965 C64.9896737,51.8038919 66.697915,48.8606291 69.8251318,48.8606291 C72.3970676,48.8606291 73.8160431,50.7227352 74.5272404,52.9212924 L75.1406481,52.9212924 L75.1023529,49.1581011 L74.3925232,49.1581011 C74.3733756,49.2688837 74.2769537,49.512332 74.0471822,49.512332 C73.6833774,49.512332 71.7070694,48.2636336 69.1939442,48.2636336 C64.8364928,48.2636336 62.4184218,51.7286691 62.4184218,55.1567771 C62.4184218,58.5657374 64.9329147,61.9760655 69.212408,61.9760655 C72.2049075,61.9760655 74.257806,60.7649785 75.0271301,60.3177447 C75.0462777,60.0394204 75.0832053,58.4925662 75.2562177,57.2425001 L74.6988852,57.2425001 C74.4116708,58.1561151 73.4132592,61.3428263 70.0938824,61.3428263 Z M91.31902,61.4912204 C88.8995813,61.4912204 86.7906077,58.8659448 86.7906077,55.1376295 C86.7906077,49.809804 89.8596977,48.7484787 91.31902,48.7484787 C94.2362968,48.7484787 95.6361246,52.0822163 95.6361246,54.9885516 C95.6361246,57.8948869 94.3128872,61.4912204 91.31902,61.4912204 Z M91.31902,48.2636336 C87.2125392,48.2636336 84.2186719,51.152189 84.2186719,55.2128523 C84.2186719,59.3494222 87.2884458,61.9760655 91.2424295,61.9760655 C95.9630018,61.9760655 98.2066927,58.2874131 98.2066927,54.9707717 C98.2066927,51.0400386 95.5219227,48.2636336 91.31902,48.2636336 Z M82.4304209,41.9811625 L82.4304209,43.2319124 C84.1154115,43.1847272 85.6014036,43.1361743 88.3251527,43.1361743 C91.0981385,43.1361743 92.683288,43.1847272 94.2677536,43.2319124 L94.2677536,41.9811625 L90.7999827,41.7903701 C90.6515886,38.6159681 90.7028769,36.7887381 90.7028769,20.2951143 C90.7028769,14.0447838 90.7028769,13.4683037 90.7999827,10.8231966 L94.2677536,10.6303527 L94.2677536,9.37960278 C92.5841306,9.47602473 91.0981385,9.47602473 88.3251527,9.47602473 C85.6014036,9.47602473 84.0155703,9.47602473 82.4304209,9.37960278 L82.4304209,10.6303527 L86.2435328,10.8231966 C86.3413224,13.7835556 86.3440578,21.4166178 86.3440578,24.9938037 L68.9094652,24.9938037 C68.9094652,21.4166178 68.9115168,13.7835556 69.0093064,10.8231966 L72.8231022,10.6303527 L72.8231022,9.37960278 C71.1394792,9.47602473 69.6521194,9.47602473 66.8791336,9.47602473 C64.1547007,9.47602473 62.5702351,9.47602473 60.9864533,9.37960278 L60.9864533,10.6303527 L64.4528565,10.8231966 C64.5520138,14.0447838 64.5520138,15.8720139 64.5520138,32.3656377 C64.5520138,38.6159681 64.5520138,39.1924483 64.4528565,41.7903701 L60.9864533,41.9811625 L60.9864533,43.2319124 C62.6700763,43.1847272 64.1547007,43.1361743 66.8791336,43.1361743 C69.6521194,43.1361743 71.188716,43.1847272 72.8231022,43.2319124 L72.8231022,41.9811625 L69.0093064,41.7903701 C68.9101491,38.8245404 68.9094652,37.5676359 68.9094652,26.5775854 L86.3440578,26.5775854 C86.3440578,30.3681305 86.3426901,38.8518942 86.2435328,41.7903701 L82.4304209,41.9811625 Z M115.862167,61.0077429 C115.247391,61.0255229 114.383697,61.081598 113.789437,61.081598 C111.082784,61.081598 110.853696,60.9325201 110.738127,60.0394204 C110.699831,59.7214331 110.699831,56.945712 110.699831,54.2807735 C110.699831,52.026825 110.718979,49.8275839 110.738127,49.2141762 L112.426536,49.1581011 L112.426536,48.5611056 C111.908183,48.5611056 111.160742,48.6000847 109.510627,48.6000847 C107.840681,48.6000847 107.111704,48.5611056 106.574203,48.5611056 L106.574203,49.1581011 L108.147043,49.2141762 C108.204486,50.4430432 108.204486,51.1330414 108.204486,57.4312409 C108.204486,59.8151197 108.185338,60.0572003 108.147043,61.0446705 L106.574203,61.081598 L106.574203,61.6772258 C107.552783,61.6402983 109.721935,61.6402983 111.928015,61.6402983 C114.134778,61.6402983 116.361373,61.6594459 117.415859,61.6772258 L117.780348,58.0268687 L116.897506,58.0268687 L115.862167,61.0077429 Z M34.0970392,51.6650717 C34.0970392,51.0003757 33.651857,50.6461447 33.0870022,50.5285236 C33.6115102,50.3726073 33.9349682,49.9397343 33.9349682,49.5089128 C33.9349682,48.7252281 33.2894199,48.2547437 32.4818006,48.2547437 C31.8355684,48.2547437 31.3096927,48.5296488 31.0033307,48.8271208 L31.4710798,49.5089128 C31.5928039,49.3529965 31.9162619,49.0780914 32.3600764,49.0780914 C32.8045748,49.0780914 33.0056248,49.3133336 33.0056248,49.5875548 C33.0056248,49.9397343 32.6425038,50.2146394 31.6981158,50.2146394 C31.6981158,50.2146394 31.6981158,50.7090583 31.6981158,51.0003757 C32.6425038,51.0003757 33.1676957,51.1556082 33.1676957,51.6650717 C33.1676957,52.2928401 32.1576587,52.4884194 31.3096927,52.175219 L31.3096927,53.0772087 C32.5221474,53.3117671 34.0970392,52.9978829 34.0970392,51.6650717 Z M29.6144444,50.0970183 C29.6144444,48.8031862 28.8868348,48.2547437 27.9185123,48.2547437 C27.0301994,48.2547437 26.2629269,48.9208073 26.2629269,49.7434712 C26.2629269,50.6071656 26.8277817,51.2096319 27.7571252,51.2096319 C28.0388687,51.2096319 28.32198,51.1015846 28.5243977,51.0003757 C28.4026735,51.3518713 28.1605929,51.7040508 27.8378187,51.9789559 C27.4733301,52.2928401 26.9898527,52.4884194 26.7464043,52.5684291 L27.311943,53.2331251 C28.645438,52.6846825 29.6144444,51.5474506 29.6144444,50.0970183 Z M24.7194919,50.7131614 C24.670939,50.1325782 24.3324364,49.7085952 23.7757877,49.5219059 C24.20319,49.3317973 24.4370645,49.0179131 24.4780951,48.5556349 C24.5498987,47.7958846 23.7504855,47.2631705 22.9674846,47.2631705 C22.1762776,47.2631705 21.448668,47.7883623 21.448668,48.5556349 C21.448668,49.0110747 21.715367,49.3249589 22.1352469,49.5219059 C21.5785983,49.7243236 21.2072712,50.1325782 21.2072712,50.7131614 C21.2072712,51.5987389 22.1202024,52.2032566 22.9674846,52.2032566 C23.8715258,52.2032566 24.793347,51.5919004 24.7194919,50.7131614 Z M18.4124024,51.9789559 L19.3492681,51.9789559 L19.3492681,48.3716809 L18.4124024,48.3716809 L18.4124024,51.9789559 Z M37.3240971,33.3291733 C37.3240971,38.1379615 37.136724,49.1143351 37.0088452,53.3637392 C31.8841213,57.1802703 27.3967396,58.9179169 27.3967396,58.9179169 C27.3967396,58.9179169 16.5961138,54.7389487 9.38361537,45.0618779 C11.4146309,45.0010158 11.4761768,44.9640883 14.9220647,44.9640883 C18.5142951,44.9640883 20.862614,45.0297373 22.9791099,45.0940186 L22.9791099,43.4281756 L18.0397076,43.1703665 C17.9145643,39.1944998 17.9145643,42.8640046 17.9145643,27.9897225 L17.9207189,27.978781 L17.9207189,27.8659468 L18.0226115,27.8652629 C24.9971324,27.8652629 27.4111003,29.05857 37.3240971,29.356042 L37.3240971,30.0125318 L37.3268325,33.3202833 L37.3240971,33.3291733 Z M27.4480279,2.87488247 L27.368702,2.87009556 C13.7608982,2.87009556 3.26047979,7.15437571 3.26047979,7.15437571 C3.26047979,7.15437571 2.77837005,15.5724904 2.89325577,23.0045026 C4.61038705,22.6571101 7.6227181,22.194148 11.4727576,22.194148 C11.6204678,22.194148 11.7613396,22.2044056 11.9076821,22.2064572 C11.9015275,13.1756186 11.8789607,14.0584607 11.7818549,10.7931075 L7.29037011,10.5394015 L7.29037011,8.8701393 C9.34463628,8.99938574 11.3941155,8.99938574 14.9220647,8.99938574 C18.5142951,8.99938574 20.7997004,8.99938574 22.9791099,8.8701393 L22.9791099,10.5394015 L18.0397076,10.7931075 C17.9316603,14.288916 17.9172996,18.665515 17.9152481,22.7726797 C24.2332791,23.8456303 29.9392701,26.1091526 37.3234133,26.8716382 C37.3193102,21.664853 37.2994787,14.0755568 37.193483,10.7931075 L32.2561322,10.5394015 L32.2561322,8.8701393 C34.3083468,8.99938574 36.3632969,8.99938574 39.8885106,8.99938574 C43.4786895,8.99938574 45.7640948,8.99938574 47.9441882,8.8701393 L47.9441882,10.5394015 L43.4554388,10.7931075 C43.3268762,14.3176374 43.3268762,15.0903807 43.3268762,23.4236988 C43.3268762,24.7428331 43.3275601,25.9710162 43.3282439,27.1253442 C47.9154668,27.0699528 50.4600488,26.6630659 51.8550897,26.2719073 C52.2141076,18.3598369 51.5637724,7.15437571 51.5637724,7.15437571 C51.5637724,7.15437571 41.0558316,2.87488247 27.4480279,2.87488247 Z M52.828883,7.08120444 L52.7823817,6.28247512 L52.0410952,5.98090009 C51.6034353,5.80241691 41.1467828,1.60703644 27.4480279,1.60703644 C13.6692632,1.60293338 3.21944917,5.80241691 2.78110542,5.98090009 L2.04050281,6.28384281 L1.99536913,7.08257213 C1.95912542,7.70145059 1.1385131,22.3049306 1.99263375,29.946199 C4.36762257,51.1556082 26.0201624,59.7446838 26.9406159,60.098231 L27.3967396,60.2760303 L27.8528633,60.098231 C28.7787875,59.7433161 50.5311685,51.1166291 52.8664944,29.8272102 C53.6959967,22.2625323 52.8644429,7.69803137 52.828883,7.08120444 Z M54.4639531,30.0036419 C52.0233153,52.2545449 29.3928791,61.2286244 28.431395,61.5999515 L27.3967396,62 L26.3627681,61.5999515 C25.4040194,61.230676 2.87752737,52.2928401 0.395175107,30.1246822 C-0.473306263,22.3500643 0.355512179,7.61391861 0.389704359,6.99025324 L0.493648586,5.17875155 L2.17453615,4.49354027 C2.62450524,4.30958634 13.3574305,-0.00478292477 27.4480279,3.98042132e-06 C41.4579317,3.98042132e-06 52.1976954,4.30958634 52.6490322,4.49217258 L54.328552,5.17670002 L54.4345478,6.98820171 C54.4694238,7.61049939 55.3084999,22.3062983 54.4639531,30.0036419 Z M51.7552486,28.0102378 C50.2507927,28.5846664 47.5858542,29.2828707 43.3309793,29.4032272 C43.3514946,44.2563101 43.454755,44.1585205 43.6106713,47.3144587 C47.5113152,42.8728945 50.7978675,37.060224 51.6068545,29.6904415 C51.6642974,29.1645658 51.7128503,28.6003948 51.7552486,28.0102378 Z M27.9185123,49.1567334 C27.5136769,49.1567334 27.1915865,49.3919756 27.1915865,49.783818 C27.1915865,50.1756603 27.5136769,50.3951741 27.9185123,50.3951741 C28.32198,50.3951741 28.645438,50.1756603 28.645438,49.783818 C28.645438,49.3919756 28.32198,49.1567334 27.9185123,49.1567334 Z M11.9090498,34.1764555 C11.9090498,31.9129332 11.9090498,29.9263675 11.9090498,28.1552126 C7.53655381,28.599711 4.81895935,29.4668246 3.29809118,30.1260499 C3.93816879,35.3492473 5.82147406,39.7805538 8.27510489,43.4863023 L11.7818549,43.1703665 C11.9090498,39.7073825 11.9090498,42.5131928 11.9090498,34.1764555 Z M22.9674846,50.0382078 C22.5558108,50.0382078 22.1352469,50.2748177 22.1434531,50.6741823 C22.1516592,51.073547 22.5558108,51.3081053 22.9674846,51.3081053 C23.3791585,51.3081053 23.7908323,51.073547 23.7997223,50.6741823 C23.8065607,50.2748177 23.3791585,50.0382078 22.9674846,50.0382078 Z M22.3855337,48.6349607 C22.3855337,48.3436433 22.6679611,48.1562702 22.9674846,48.1562702 C23.2649566,48.1562702 23.5562739,48.3436433 23.5562739,48.6349607 C23.5562739,48.9255942 23.2649566,49.1129674 22.9674846,49.1129674 C22.6679611,49.1129674 22.3855337,48.9255942 22.3855337,48.6349607 Z" id="Fill-1"></path></g></g></svg>